<?xml version="1.0" encoding="UTF-8"?>
<!DOCTYPE svg PUBLIC "-//W3C//DTD SVG 1.1//EN" "http://www.w3.org/Graphics/SVG/1.1/DTD/svg11.dtd">
<!-- Creator: CorelDRAW -->
<svg xmlns="http://www.w3.org/2000/svg" xml:space="preserve" width="25.3198cm" height="15.835cm" style="shape-rendering:geometricPrecision; text-rendering:geometricPrecision; image-rendering:optimizeQuality; fill-rule:evenodd; clip-rule:evenodd"
viewBox="0 0 25.811 16.1422"
 xmlns:xlink="http://www.w3.org/1999/xlink">
 <defs>
  <style type="text/css">
   <![CDATA[
    .fil1 {fill:#1F1A17}
    .fil0 {fill:#FFF500}
   ]]>
  </style>
 </defs>
 <g id="Camada_x0020_1">
  <metadata id="CorelCorpID_0Corel-Layer"/>
  <path class="fil0" d="M0.769334 0l24.2723 0c0.422426,0 0.769334,0.346908 0.769334,0.771706l0 14.5964c0,0.424799 -0.346908,0.774079 -0.769334,0.774079l-24.2723 0c-0.422426,0 -0.769334,-0.349281 -0.769334,-0.774079l0 -14.5964c0,-0.424799 0.346908,-0.771706 0.769334,-0.771706z"/>
  <path class="fil1" d="M19.9487 10.5305l0 0.816543 -3.70512 2.59363 -14.0867 0 0 -0.816543 3.70517 -2.59363 14.0866 0zm3.70517 -8.33066l0 0.816543 -3.70517 2.59359 -14.0866 0 0 -0.816543 3.70512 -2.59359 14.0867 0zm-14.7191 3.78301l-3.07267 0 0 4.17476 3.17179 0 0 -0.738652 -2.31749 0 0 -1.08323 2.03665 0 0 -0.736279 -2.03665 0 0 -0.877948 2.21837 0 0 -0.738652zm0.243081 2.88858c0,0.519217 0.26194,1.39712 1.78649,1.39712 0.368139,0 1.64724,-0.110946 1.64724,-1.36644 0,-0.752806 -0.52388,-0.981733 -1.09501,-1.12099l-1.01716 -0.250158c-0.17464,-0.0424632 -0.441284,-0.110904 -0.441284,-0.43658 0,-0.379963 0.394117,-0.500317 0.72687,-0.500317 0.762256,0 0.830697,0.441326 0.854302,0.627748l0.837774 0c-0.00470426,-0.512098 -0.349281,-1.34987 -1.62838,-1.34987 -1.35699,0 -1.60715,0.821247 -1.60715,1.28618 0,0.915665 0.653725,1.06903 1.32868,1.22481l0.44603 0.103827c0.443699,0.1062 0.757552,0.193541 0.757552,0.519217 0,0.441284 -0.460185,0.540407 -0.873202,0.540407 -0.762256,0 -0.877906,-0.441326 -0.884983,-0.674957l-0.837774 0zm4.51459 0.424799l-0.292622 0.861379 -0.915665 0 1.4868 -4.17476 1.00534 0 1.4726 4.17476 -0.948678 0 -0.266686 -0.861379 -1.54108 0zm0.767002 -2.37178l-0.535703 1.64965 1.06433 0 -0.516802 -1.64965 -0.0118231 0zm2.08386 3.23316l1.76759 0c0.856675,0 1.08323,-0.14629 1.32161,-0.37759 0.221849,-0.214731 0.361062,-0.530998 0.361062,-0.861379 0,-0.412976 -0.134508,-0.821289 -0.646607,-1.01004 0.17464,-0.087341 0.512098,-0.257235 0.512098,-0.856675 0,-0.429545 -0.26194,-1.06907 -1.28618,-1.06907l-2.02958 0 0 4.17476zm0.837774 -1.83841l1.11154 0c0.313895,0 0.627789,0.139254 0.627789,0.505062 0,0.424757 -0.245454,0.611221 -0.670253,0.611221l-1.06907 0 0 -1.11628zm0 -1.61419l1.00063 0c0.39649,0 0.639571,0.103827 0.639571,0.44603 0,0.332753 -0.273763,0.467262 -0.615966,0.467262l-1.02424 0 0 -0.913292zm5.3666 0.264313l0 -0.715089 0.302072 0c0.0778492,0 0.132136,0.0070772 0.167563,0.0189003 0.035386,0.0141544 0.0613219,0.035386 0.0825951,0.0683991 0.0212316,0.0330547 0.0306818,0.0708137 0.0306818,0.113319 0,0.0542863 -0.014196,0.0967495 -0.0472091,0.132136 -0.0306818,0.035386 -0.0778909,0.0566593 -0.141627,0.0660678 0.0330547,0.0189003 0.0590322,0.037759 0.0778909,0.0590322 0.0212316,0.0235629 0.0472091,0.0613219 0.0825951,0.117981l0.087341 0.139254 -0.172267 0 -0.103868 -0.155782c-0.037759,-0.0566176 -0.0636948,-0.0920453 -0.0778492,-0.1062 -0.0118231,-0.0141544 -0.0259775,-0.0236046 -0.0425048,-0.0283088 -0.0141544,-0.0070772 -0.0401319,-0.00945015 -0.073145,-0.00945015l-0.0283088 0 0 0.29974 -0.143959 0zm0.143959 -0.413017l0.106158 0c0.0684407,0 0.113319,-0.00237294 0.129804,-0.00945015 0.0165273,-0.00470426 0.0306818,-0.0141544 0.0401319,-0.0283088 0.00945015,-0.0165273 0.0141544,-0.0330547 0.0141544,-0.0542863 0,-0.0236046 -0.00470426,-0.0448362 -0.0188587,-0.0589906 -0.0118231,-0.0141544 -0.0306818,-0.0236046 -0.0542863,-0.0283088 -0.0118231,0 -0.0472091,-0.00237294 -0.103827,-0.00237294l-0.113277 0 0 0.181718zm0.125058 -0.483789c-0.302072,0 -0.547526,0.245454 -0.547526,0.547526 0,0.302072 0.245454,0.547484 0.547526,0.547484 0.299699,0 0.545153,-0.245412 0.545153,-0.547484 0,-0.302072 -0.245454,-0.547526 -0.545153,-0.547526zm0 -0.0896723c-0.351654,0 -0.639571,0.285544 -0.639571,0.637198 0,0.351612 0.287917,0.637198 0.639571,0.637198 0.349281,0 0.637198,-0.285586 0.637198,-0.637198 0,-0.351654 -0.287917,-0.637198 -0.637198,-0.637198z"/>
 </g>
</svg>
