<?xml version="1.0" encoding="UTF-8"?>
<svg width="111px" height="31px" viewBox="0 0 111 31" version="1.1" xmlns="http://www.w3.org/2000/svg" xmlns:xlink="http://www.w3.org/1999/xlink">
    <g id="Generator" stroke="none" stroke-width="1" fill="none" fill-rule="evenodd">
        <g id="header" transform="translate(-48.000000, -36.000000)">
            <g id="Logo" transform="translate(12.000000, 1.000000)">
                <rect id="Rectangle-12" x="0" y="0" width="147" height="66"></rect>
                <path d="M65.8779558,65.3481053 L63.7919558,51.3283158 C63.3576612,48.6721053 63.0966225,46.3644211 62.8794752,44.3184211 L62.7928473,44.3184211 C62.4024442,46.1907368 61.9669946,48.2367368 61.1850333,50.5884211 L56.5360023,65.3481053 L50.9305992,65.3481053 L46.454824,51.6328421 C45.6301264,49.1514737 45.0202659,46.7129474 44.5859713,44.3184211 L44.5004984,44.3184211 C44.3260876,46.9306316 44.0223124,49.2383158 43.6734907,51.8076842 L42.0229403,65.3481053 L36.2812426,65.3492632 L40.8066845,35.9584211 L47.4111961,35.9584211 L52.3212659,51.0666316 C52.8860798,52.8092632 53.4508938,54.9421053 53.9718163,57.2497895 L54.0157078,57.2497895 C54.4938938,54.9849474 54.9720798,53.2434737 55.6674132,51.1546316 L60.7068473,35.9584211 L67.2686225,35.9584211 L71.8310256,65.3481053 L65.8779558,65.3481053 Z" id="Fill-4" fill="#1D1D1B"></path>
                <path d="M85.2784488,47.9757474 C82.8020457,47.9757474 80.3695341,49.8920632 80.3695341,54.3325895 C80.3695341,58.7731158 81.976193,61.0379579 85.1918209,61.0379579 C87.9292628,61.0379579 90.0152628,58.8171158 90.0152628,54.4194316 C90.0152628,50.2405895 88.5379682,47.9757474 85.2784488,47.9757474 M84.7136349,65.7841684 C78.5873093,65.7841684 74.6336116,62.6057474 74.6336116,54.8988 C74.6336116,48.1505895 79.1082318,43.2723789 85.6688519,43.2723789 C91.7963326,43.2723789 95.7500302,46.6696421 95.7500302,54.1149053 C95.7500302,60.9071158 91.1887822,65.7841684 84.7136349,65.7841684" id="Fill-6" fill="#1D1D1B"></path>
                <path d="M104.139192,65.7840526 C102.44475,65.7840526 100.706417,65.6092105 99.3169054,65.2178421 L99.7073085,60.5584737 C101.011347,61.1258421 102.705789,61.4303684 104.312448,61.4303684 C106.399603,61.4303684 107.789115,60.5156316 107.789115,59.1226842 C107.789115,55.2472105 99.0119752,57.5108947 99.0119752,50.1524737 C99.0119752,46.3198421 101.923828,43.2294211 108.135626,43.2294211 C109.396929,43.2294211 110.874223,43.4042632 112.090479,43.6647895 L111.82944,48.0196316 C110.657076,47.6711053 109.266409,47.4534211 107.919634,47.4534211 C105.747006,47.4534211 104.746743,48.3241579 104.746743,49.6742632 C104.746743,53.3320526 113.655557,51.5025789 113.655557,58.5993158 C113.655557,62.9101579 109.87396,65.7840526 104.139192,65.7840526" id="Fill-8" fill="#1D1D1B"></path>
                <path d="M129.47335,55.6383474 C123.824056,55.6383474 122.30287,57.1192947 122.30287,58.9916105 C122.30287,60.4285579 123.260397,61.5169789 124.867056,61.5169789 C127.604498,61.5169789 129.47335,58.9047684 129.47335,56.2914 L129.47335,55.6383474 Z M129.907645,65.3484526 C129.907645,64.0851895 129.951536,62.8230842 130.124792,61.6918211 L130.082056,61.6478211 C129.039056,64.0851895 126.388242,65.7838211 123.172614,65.7838211 C119.262808,65.7838211 117.002397,63.1276105 117.002397,59.6018211 C117.002397,54.4630842 121.956358,52.0245579 129.47335,52.0245579 L129.47335,50.9372947 C129.47335,48.6724526 128.387614,47.4971895 125.258614,47.4971895 C123.303133,47.4971895 120.913358,48.1502421 119.175025,49.0209789 L118.175916,44.6232947 C120.348544,43.7965579 123.389761,43.2291895 126.214986,43.2291895 C133.079381,43.2291895 135.034862,46.0602421 135.034862,50.5447684 L135.034862,59.7755053 C135.034862,61.5169789 135.078753,63.5629789 135.165381,65.3484526 L129.907645,65.3484526 Z" id="Fill-10" fill="#1D1D1B"></path>
                <path d="M143.428067,65.8270105 C141.472586,65.8270105 139.864772,64.2163789 139.864772,62.2572211 C139.864772,60.3409053 141.472586,58.7302737 143.428067,58.7302737 C145.382392,58.7302737 146.94747,60.3409053 146.94747,62.2572211 C146.94747,64.2163789 145.382392,65.8270105 143.428067,65.8270105" id="Fill-12" fill="#1D1D1B"></path>
            </g>
        </g>
    </g>
</svg>