<svg xmlns="http://www.w3.org/2000/svg" viewBox="0 0 200 60">
<style type="text/css">
</style>
  <g id="otc-logo_Ebene_1_00000088855997701463269630000006926321520044241539_">
</g>
  <g id="otc-logo_Ebene_2_00000176021528274754710760000000160117576326569659_">
	<path class="st0" d="M221.5,41" />
    <path class="st0" d="M141.9,41" />
    <path class="st0" d="M182.6,85.2" />
    <polygon class="st1" points="22.4,135.4 22.4,140.4 26.7,140.4 26.7,158.5 31.6,158.5 31.6,140.5 36.1,140.5 36.1,135.4 	" />
    <path class="st1" d="M52.3,135.3c0,0-15.5-0.9-15.5,11.3c0,13.7,15.6,11.8,15.6,11.8v-4.9c0,0-10.3,1-10.3-6.8
		c0-6.6,10.1-6.5,10.1-6.5L52.3,135.3z" />
    <g>
		<path class="st1" d="M69.2,135.8c-2.7,0-6.2,0-6.2,0c-1.8,0.8-1.8,1.7-1.8,1.7c0,0.2,0,0.4,0,0.6v8.8c0,0.2,0,0.4,0,0.6
			c0,0,0,7.5,0,8.9s1.7,2,1.7,2c0.1,0,0.4,0.1,0.6,0.1h6.2c6.9,0,11.3-2.9,11.3-11.1C80.9,139.1,76.9,135.8,69.2,135.8z M67.6,154.1
			h-2.1c-0.2,0-0.3-0.1-0.3-0.3v-13.2c0-0.2,0.1-0.3,0.3-0.3h2.4c6.2,0,8.6,2.4,8.6,6.8S75,154.1,67.6,154.1z" />
	</g>
    <g>
		<path class="st1" d="M92.8,135.9c-1.7-1.7-3.2,0-3.2,0l-10.3,22.6h5.4l1.3-2.6h9.9l1.3,2.7h5.1C102.2,158.5,94.6,137.6,92.8,135.9
			z M87.7,151.3l3.5-7.6l3.3,7.6H87.7z" />
	</g>
    <polygon class="st1" points="112.7,135.5 117.1,135.5 117.1,144.6 126.1,144.6 126.1,135.6 130.4,135.6 130.4,158.5 126.1,158.5
		126.1,149.8 117,149.8 117,158.5 112.7,158.5 	" />
    <polygon class="st1" points="347.6,142.2 350.4,142.2 350.4,148.6 356.1,148.6 356.1,142.2 358.8,142.2 358.8,158.5 356.1,158.5
		356.1,152.3 350.3,152.3 350.3,158.5 347.6,158.5 	" />
    <path class="st1" d="M134.2,147.5v-9.6c0,0,0.1-2.4,1.9-2.4s12.6,0,12.6,0v4.5h-10.3v5.4h10.3v4.2h-10.2v4.6h10.2v4.3h-12.5
		c0,0-1.9-0.8-1.9-2.7C134.2,153.9,134.2,147.5,134.2,147.5z" />
    <path class="st1" d="M179.4,147.5v-9.6c0,0,0.1-2.4,1.9-2.4c1.8,0,12.6,0,12.6,0v4.5h-10.3v5.4h10.3v4.2h-10.2v4.6h10.2v4.3h-12.5
		c0,0-1.9-0.8-1.9-2.7C179.4,153.9,179.4,147.5,179.4,147.5z" />
    <path class="st1" d="M282.3,147.5v-9.6c0,0,0.1-2.4,1.9-2.4s12.6,0,12.6,0v4.5h-10.3v5.4h10.3v4.2h-10.2v4.6h10.2v4.3h-12.5
		c0,0-1.9-0.8-1.9-2.7C282.3,153.9,282.3,147.5,282.3,147.5z" />
    <path class="st1" d="M151.5,158.5v-21.4c0,0-0.2-1.6,1.2-1.6s2.8,0,2.8,0l9.5,13.7v-13.7h4.7V157c0,0,0.1,1.5-1,1.5
		c-1.2,0-3.1,0-3.1,0l-9.4-14.2v14.2H151.5z" />
    <path class="st1" d="M197.2,151.5v-16.1h4.4V151c0,0,0.1,3.1,4.8,3.1c4.6,0,4.8-3.1,4.8-3.1v-15.6h4.2v16.2c0,0-0.6,7.2-9.3,7.2
		C197.3,158.7,197.2,151.5,197.2,151.5z" />
    <g>
		<path class="st1" d="M230.3,149c6.3,0,6.7-4.4,6.7-7.4c0-5-4.3-6.3-4.3-6.3s-9.1,0-11.6,0s-2.4,2.9-2.4,2.9v8.9v11.3h5.3v-8.9
			l7.8,8.9h6.1L230.3,149z M223.8,144.9v-5h7.5c0,0,1.5,0.7,1.3,2.5s-1.3,2.4-1.3,2.4h-7.5V144.9z" />
	</g>
    <g>
		<path class="st1" d="M273.9,135.3c0,0-7.7,0-10.3,0c-2.6,0-2.5,2-2.5,2v21.4h4.5v-9.9h9c0,0,4.5-0.4,4.5-6.2
			C279.3,135.3,273.9,135.3,273.9,135.3z M273.5,144.9H266v-5h7.5c0,0,1.5,0.7,1.3,2.5C274.6,144.3,273.5,144.9,273.5,144.9z" />
	</g>
    <path class="st1" d="M313,141.9c0,0-9.4-1.3-9.4,8c0,4.4,2.1,8.5,10.9,8.5v-9.9h-3.1v6.4c0,0-4.3-0.3-4.3-4.9c0,0-0.6-4.8,5.8-4.8
		L313,141.9z" />
    <g>
		<path class="st1" d="M342.6,148.6c-3.5-1.1-4.5,0.5-4.5,0.5v-7.2l-3.4-0.1v12.3c0,0-0.4,4.4,4.7,4.4c4.6-0.1,5.3-3.3,5.3-3.3
			S346,149.7,342.6,148.6z M341.6,154.3c0,0.3-0.3,0.6-0.6,0.6h-2.9v-3.4h2.9c0.3,0,0.6,0.3,0.6,0.6V154.3z" />
	</g>
    <rect x="104" y="135.7" class="st1" width="4.9" height="22.9" />
    <g>
		<path class="st1" d="M258.4,141.9c0,0-1.6-6.7-9.8-6.7s-9.5,7.1-9.5,7.1c-0.1,0.5-0.2,1.2-0.2,1.7v5.4c0,0.5,0.1,1.2,0.1,1.7
			c0,0,1.1,7.4,9.5,7.4s9.8-6.8,9.8-6.8c0.1-0.5,0.2-1.2,0.2-1.7v-6.4C258.6,143.1,258.5,142.4,258.4,141.9z M253.8,149.3
			c0,0,0,4.7-5.1,4.7c-5.2,0-4.9-5.1-4.9-5.1v-4.3c0,0-0.1-4.9,4.9-4.9s5.1,4.6,5.1,4.6V149.3z" />
	</g>
    <g>
		<path class="st1" d="M20.4,141.9c0,0-1.6-6.7-9.8-6.7s-9.5,7.1-9.5,7.1c-0.1,0.5-0.2,1.2-0.2,1.7v5.4c0,0.5,0.1,1.2,0.1,1.7
			c0,0,1.1,7.4,9.5,7.4s9.8-6.8,9.8-6.8c0.1-0.5,0.2-1.2,0.2-1.7v-6.4C20.6,143.1,20.5,142.4,20.4,141.9z M15.8,149.3
			c0,0,0,4.7-5.1,4.7c-5.2,0-4.9-5.1-4.9-5.1v-4.3c0,0-0.1-4.9,4.9-4.9s5.1,4.6,5.1,4.6S15.8,149.3,15.8,149.3z" />
	</g>
    <g>
		<path class="st1" d="M323.3,158.5v-6.1c0-0.6-0.3-1.2-1.1-1.2c-0.8,0-1.1,0.6-1.1,1.2v6.1h-3.4v-6.6c0-2.4,2.1-3.9,4.3-3.9
			c1.1,0,2.2,0.6,2.9,1.4c0.7-0.8,1.8-1.4,2.9-1.4c2.3,0,4.3,1.5,4.3,3.9v6.6h-3.4v-6.1c0-0.6-0.3-1.2-1.1-1.2s-1.1,0.6-1.1,1.2v6.1
			H323.3z" />
	</g>
    <g>
		<polygon class="st1" points="141.8,32.7 221.7,32.7 221.7,50.3 196,50.3 196,84.9 167.4,84.9 167.4,50.3 141.8,50.3 		" />
      <path class="st1" d="M110.9,33.1H78.1C63.7,33.1,52,44.8,52,59.2s11.7,26.1,26.1,26.1h32.8c14.4,0,26.1-11.7,26.1-26.1
			S125.3,33.1,110.9,33.1z M111.4,67.5H78.5c-4.6,0-8.3-3.7-8.3-8.3s3.7-8.3,8.3-8.3h32.9c4.6,0,8.3,3.7,8.3,8.3
			C119.6,63.8,115.9,67.5,111.4,67.5z" />
      <path class="st1" d="M307,67.3c2.1,0,3.7,1.8,2,5C306.5,77,297.7,85,287.4,85h-33c-15.8,0-26.9-12-26.9-25.7s9.6-26.7,26.9-26.5
			c0.2,0,33,0,33,0c9.1,0,19,7.6,22,14.1c1.1,2.4-0.4,4-2.2,4h-51.6c-11.4,0-11.1,16.5-0.4,16.5L307,67.3L307,67.3z" />
      <path class="st1" d="M27.7,28.1C18.9,31.6,0.6,38.8,0.6,59.5c0,20.8,18.3,28,27.2,31.4c26.9,10.5,82.6,28.2,153.8,28.2
			c71.1,0,126.9-17.7,153.8-28.2c8.8-3.4,27.2-10.6,27.2-31.4s-18.3-28-27.2-31.4C308.4,17.6,252.6,0,181.5,0S54.6,17.6,27.7,28.1z
			 M30.6,83.6C17.3,78.4,8.5,72.3,8.5,59.5s8.8-18.9,22.1-24.1C57,25.2,111.7,7.9,181.5,7.9S306,25.2,332.4,35.5
			c13.3,5.2,22.1,11.3,22.1,24.1s-8.9,18.9-22.1,24.1C306,94,251.3,111.3,181.5,111.3C111.7,111.2,57,93.9,30.6,83.6z" />
	</g>
</g>
</svg>
