<?xml version="1.0" encoding="utf-8"?>
<!-- Generator: Adobe Illustrator 23.0.0, SVG Export Plug-In . SVG Version: 6.00 Build 0)  -->
<svg version="1.1" id="Livello_1" xmlns="http://www.w3.org/2000/svg" xmlns:xlink="http://www.w3.org/1999/xlink" x="0px" y="0px"
	 viewBox="0 0 732.4 187.4" style="enable-background:new 0 0 732.4 187.4;" xml:space="preserve">
<style type="text/css">
	.st0{fill:#C00020;}
</style>
<g>
	<g>
		<path d="M141.6,41.2h-21.5V2H85.7v183.4h11h22.7V74.2c0-2.4,1.9-4.3,4.3-4.3c2.4,0,4.3,1.9,4.3,4.3v111.2h34.1V61.8
			C162.1,50.4,152.9,41.2,141.6,41.2z"/>
		<path d="M338.3,41.2h-21.5c-11.3,0-20.5,9.2-20.5,20.5v39.6v49.8V165c0,11.3,9.2,20.5,20.5,20.5h55.9v-0.2v-99V2h-34.4V41.2z
			 M339,86.4v68c0,2.4-1.9,4.3-4.3,4.3c-2.4,0-4.3-1.9-4.3-4.3v-3.2v-49.8V72.4c0-2.4,1.9-4.3,4.3-4.3c2.4,0,4.3,1.9,4.3,4.3V86.4z"
			/>
		<rect x="170" y="42.5" width="34.4" height="142.7"/>
		<path d="M267.4,42.8h-55.9v142.6h11h22.7V75.7c0-2.4,1.9-4.3,4.3-4.3c2.4,0,4.3,1.9,4.3,4.3v109.6h34.1v-122
			C287.9,52,278.7,42.8,267.4,42.8z"/>
		<polygon points="600.7,42.5 591.3,113.4 583.2,42.5 579,42.5 554.2,42.5 549.9,42.5 541.8,113.4 532.4,42.5 500.1,42.5 
			498.4,42.5 465.8,42.5 465.8,185.2 500.1,185.2 500.1,54.2 519.9,185.2 533.7,185.2 551.4,185.2 557.8,185.2 566.6,125.9 
			575.4,185.2 581.7,185.2 599.4,185.2 610.7,185.2 632.2,42.5 		"/>
		<path d="M424.6,41.2h-1h-10h-0.8c-0.2,0-0.4,0-0.6,0c-17.8,0.7-32,15.4-32,33.3v19.6h34.1V69.8c0-2.4,2.2-4.3,4.6-4.3
			c2.4,0,4.6,1.9,4.6,4.3v13.6c-0.4,4.4-1.9,7.6-8.4,11.3c-2.9,1.7-15.8,9-18.9,10.8c-12.8,7.5-15.8,18.8-15.8,26.1l0,33.5
			c0,11.3,9.2,20.5,20.5,20.5H458v-0.2l0-110.8C458,56.2,443.1,41.2,424.6,41.2z M418.9,160.3c-2.4,0-4.6-1.9-4.6-4.3v-24.3
			c0-3.4,1.1-9.7,9.1-13.4V156C423.4,158.4,421.2,160.3,418.9,160.3z"/>
		<path d="M77.8,70.3c0-18-14.2-32.6-32-33.3c-0.2,0-0.4,0-0.6,0h-0.8h-10h-1C14.9,36.9,0,51.9,0,70.3l0,14.9
			c0,10.8,2.4,16.1,15.3,26.6c0.8,0.6,13.9,11.6,21.1,17.8c6.3,5.4,6.8,11,6.8,14.3c0,3.3,0,15,0,15c0,2.4-2.2,4.3-4.6,4.3
			c-2.4,0-4.6-1.9-4.6-4.3v-30.1H0L0,154c0,18,14.2,32.6,32,33.3c0.2,0,0.4,0,0.6,0h0.8h10h1c18.4,0,33.4-14.9,33.4-33.4v-19.4
			c0-7.3-4-17.4-15.8-27.2c-0.9-0.7-10.1-8.6-18-15.5h33.7V70.3z M38.6,87.1c-2.5-2.3-4-5.7-4-7.4c0-2.8,0-13.3,0-13.3
			c0-2.4,1.9-4.3,4.3-4.3c2.4,0,4.3,1.9,4.3,4.3v24.7C41.5,89.7,40,88.3,38.6,87.1z"/>
		<path d="M675.2,41.2h-1h-10h-0.8c-0.2,0-0.4,0-0.6,0c-17.8,0.7-32,15.4-32,33.3v19.6h34.1V69.8c0-2.4,2.2-4.3,4.6-4.3
			c2.4,0,4.6,1.9,4.6,4.3v13.6c-0.4,4.4-1.9,7.6-8.4,11.3c-2.9,1.7-15.8,9-18.9,10.8c-12.8,7.5-15.8,18.8-15.8,26.1l0,33.5
			c0,11.3,9.2,20.5,20.5,20.5h57.2v-0.2l0-110.8C708.6,56.2,693.6,41.2,675.2,41.2z M669.4,160.3c-2.4,0-4.6-1.9-4.6-4.3v-24.3
			c0-3.4,1.1-9.7,9.1-13.4V156C674,158.4,671.8,160.3,669.4,160.3z"/>
	</g>
	<g>
		<path class="st0" d="M187.2,0c-10.6,0-19.1,8.6-19.1,19.1c0,10.6,8.6,19.1,19.1,19.1c10.6,0,19.1-8.6,19.1-19.1
			C206.3,8.6,197.8,0,187.2,0z"/>
		<path class="st0" d="M482.9,38.3c10.6,0,19.1-8.6,19.1-19.1C502,8.6,493.5,0,482.9,0c-10.6,0-19.1,8.6-19.1,19.1
			C463.8,29.7,472.4,38.3,482.9,38.3z"/>
	</g>
	<g>
		<path d="M714.1,11.9c-10.1,0-18.3,8.2-18.3,18.3c0,10.1,8.2,18.3,18.3,18.3c10.1,0,18.3-8.2,18.3-18.3
			C732.4,20,724.2,11.9,714.1,11.9z M714.1,45.8c-8.6,0-15.6-7-15.6-15.6c0-8.6,7-15.6,15.6-15.6c8.6,0,15.6,7,15.6,15.6
			C729.7,38.8,722.7,45.8,714.1,45.8z"/>
		<path d="M706.2,20.1h10.2c5.4,0,6.3,4,6.3,5.7c0,2.2-1.1,4.1-3.1,4.8c1.7,0.7,2.6,1.3,2.6,5.1c0,2.9,0,3.7,0.9,4v0.5h-4.7
			c-0.3-1-0.4-2-0.4-4.1c0-2.8-0.2-3.8-3.3-3.8h-4.4v7.9h-4.1V20.1z M715.3,28.9c2.2,0,3.3-0.8,3.3-2.8c0-1.1-0.5-2.6-2.9-2.6h-5.2
			v5.4H715.3z"/>
	</g>
</g>
</svg>
